<?xml version="1.0" encoding="UTF-8" standalone="no"?>
<svg width="79.375mm" height="9.26042mm"
 xmlns="http://www.w3.org/2000/svg" xmlns:xlink="http://www.w3.org/1999/xlink"  version="1.2" baseProfile="tiny">
<desc>Created by EvoPdf</desc>
<defs>
</defs>
<g fill="none" stroke="black" stroke-width="1" fill-rule="evenodd" stroke-linecap="square" stroke-linejoin="bevel" >

<g fill="#000000" fill-opacity="1" stroke="#000000" stroke-opacity="1" stroke-width="1" stroke-linecap="square" stroke-linejoin="miter" stroke-miterlimit="2" transform="matrix(1,0,0,1,0,0)"
>
</g>

<g fill="#000000" fill-opacity="1" stroke="#000000" stroke-opacity="1" stroke-width="1" stroke-linecap="square" stroke-linejoin="miter" stroke-miterlimit="2" transform="matrix(1,0,0,1,0,0)"
>
</g>

<g fill="#000000" fill-opacity="1" stroke="#000000" stroke-opacity="1" stroke-width="1" stroke-linecap="square" stroke-linejoin="miter" stroke-miterlimit="2" transform="matrix(1,0,0,1,0,0)"
>
</g>

<g fill="#000000" fill-opacity="1" stroke="#000000" stroke-opacity="1" stroke-width="1" stroke-linecap="square" stroke-linejoin="miter" stroke-miterlimit="2" transform="matrix(1,0,0,1,0,0)"
>
</g>

<g fill="#000000" fill-opacity="1" stroke="#000000" stroke-opacity="1" stroke-width="1" stroke-linecap="square" stroke-linejoin="miter" stroke-miterlimit="2" transform="matrix(1,0,0,1,8,8)"
>
</g>

<g fill="#ffffff" fill-opacity="1" stroke="none" transform="matrix(1,0,0,1,8,8)"
>
<path vector-effect="none" fill-rule="nonzero" d="M18.714,4.864 L18.632,7.467 L11.841,14.85 C14.678,14.85 16.478,14.821 17.513,14.763 C17.214,16.165 16.969,17.311 16.723,19.026 C15.359,18.913 13.231,18.884 11.104,18.884 C8.731,18.884 6.659,18.912 4.995,19.026 L5.049,16.394 L11.84,9.041 C8.867,9.041 7.776,9.068 6.549,9.098 C6.821,7.782 7.013,6.323 7.203,4.864 C9.358,4.949 10.203,4.979 13.012,4.979 C15.604,4.979 17.078,4.95 18.714,4.864 "/>
</g>

<g fill="#000000" fill-opacity="1" stroke="#000000" stroke-opacity="1" stroke-width="1" stroke-linecap="square" stroke-linejoin="miter" stroke-miterlimit="2" transform="matrix(1,0,0,1,8,8)"
>
</g>

<g fill="#ffffff" fill-opacity="1" stroke="none" transform="matrix(1,0,0,1,8,8)"
>
<path vector-effect="none" fill-rule="nonzero" d="M26.433,4.091 C22.015,4.091 18.632,8.04 18.632,12.762 C18.632,16.308 20.678,19.027 24.66,19.027 C29.106,19.027 32.46,15.08 32.46,10.33 C32.46,6.809 30.469,4.091 26.433,4.091 M25.095,15.23 C24.114,15.23 23.542,14.345 23.542,12.599 C23.542,9.995 24.605,7.907 25.914,7.907 C26.869,7.907 27.441,8.765 27.441,10.539 C27.441,13.113 26.404,15.23 25.095,15.23 "/>
</g>

<g fill="#000000" fill-opacity="1" stroke="#000000" stroke-opacity="1" stroke-width="1" stroke-linecap="square" stroke-linejoin="miter" stroke-miterlimit="2" transform="matrix(1,0,0,1,8,8)"
>
</g>

<g fill="#ffffff" fill-opacity="1" stroke="none" transform="matrix(1,0,0,1,8,8)"
>
<path vector-effect="none" fill-rule="nonzero" d="M88.897,3.895 C84.42,3.895 80.995,7.896 80.995,12.679 C80.995,16.273 83.067,19.027 87.102,19.027 C91.605,19.027 95.003,15.028 95.003,10.214 C95.004,6.649 92.987,3.895 88.897,3.895 M87.459,15.216 C86.477,15.216 85.904,14.331 85.904,12.584 C85.904,9.98 86.967,7.892 88.276,7.892 C89.232,7.892 89.805,8.751 89.805,10.525 C89.806,13.099 88.768,15.216 87.459,15.216 "/>
</g>

<g fill="#000000" fill-opacity="1" stroke="#000000" stroke-opacity="1" stroke-width="1" stroke-linecap="square" stroke-linejoin="miter" stroke-miterlimit="2" transform="matrix(1,0,0,1,8,8)"
>
</g>

<g fill="#ffffff" fill-opacity="1" stroke="none" transform="matrix(1,0,0,1,8,8)"
>
<path vector-effect="none" fill-rule="nonzero" d="M55.396,9.241 C55.75,6.81 55.559,4.606 52.86,4.606 C50.896,4.606 48.769,6.266 47.269,9.042 C47.596,6.752 47.405,4.606 44.733,4.606 C42.714,4.606 40.533,6.351 39.032,9.241 C39.414,7.353 39.332,5.208 39.223,4.749 C37.668,5.007 36.305,5.151 34.396,5.208 C34.45,6.523 34.369,8.24 34.124,9.871 L33.496,14.163 C33.251,15.851 32.978,17.798 32.706,19.026 L37.778,19.026 C37.805,18.283 37.997,17.109 38.133,16.079 L38.569,13.134 C38.925,11.216 40.451,8.956 41.624,8.956 C42.307,8.956 42.279,9.614 42.088,10.844 L41.597,14.163 C41.351,15.851 41.079,17.798 40.806,19.026 L45.933,19.026 C45.96,18.283 46.124,17.109 46.261,16.079 L46.697,13.134 C47.051,11.216 48.579,8.956 49.752,8.956 C50.433,8.956 50.406,9.585 50.297,10.444 L49.073,19.027 L53.751,19.027 L55.396,9.241"/>
</g>

<g fill="#000000" fill-opacity="1" stroke="#000000" stroke-opacity="1" stroke-width="1" stroke-linecap="square" stroke-linejoin="miter" stroke-miterlimit="2" transform="matrix(1,0,0,1,8,8)"
>
</g>

<g fill="#ffffff" fill-opacity="1" stroke="none" transform="matrix(1,0,0,1,8,8)"
>
<path vector-effect="none" fill-rule="nonzero" d="M79.895,14.536 L79.35,17.91 C78.504,18.37 76.923,19.026 75.096,19.026 C71.987,19.026 71.359,17.367 71.851,13.847 L72.639,8.182 L71.112,8.182 L71.545,4.515 L73.215,4.435 L73.842,1.774 L78.559,0 L77.958,4.435 L81.203,4.435 C81.095,4.893 80.713,7.41 80.603,8.183 L77.44,8.183 L76.731,13.419 C76.541,14.764 76.648,15.25 77.577,15.25 C78.259,15.25 79.268,14.851 79.895,14.536 "/>
</g>

<g fill="#000000" fill-opacity="1" stroke="#000000" stroke-opacity="1" stroke-width="1" stroke-linecap="square" stroke-linejoin="miter" stroke-miterlimit="2" transform="matrix(1,0,0,1,8,8)"
>
</g>

<g fill="#ffffff" fill-opacity="1" stroke="none" transform="matrix(1,0,0,1,8,8)"
>
<path vector-effect="none" fill-rule="nonzero" d="M62.003,16.357 C63.718,16.146 64.9,14.491 65.184,12.839 L65.232,12.397 C64.495,12.232 63.428,12.105 62.394,12.232 C61.41,12.353 60.589,12.762 60.15,13.354 C59.817,13.781 59.65,14.289 59.724,14.895 C59.835,15.806 60.84,16.501 62.003,16.357 M60.539,18.974 C58.116,19.273 56.519,18.312 56.041,16.121 C55.738,14.745 56.157,13.178 56.887,12.242 C57.865,11.018 59.458,10.232 61.402,9.994 C62.966,9.802 64.284,9.896 65.517,10.131 L65.568,9.919 C65.603,9.581 65.639,9.243 65.589,8.838 C65.463,7.801 64.645,7.184 62.623,7.432 C61.262,7.599 59.964,8.091 58.957,8.652 L57.98,5.693 C59.343,4.91 61.063,4.314 63.031,4.072 C66.793,3.61 69.432,4.811 69.771,7.566 C69.861,8.299 69.873,9.076 69.778,9.781 C69.295,13.19 68.986,15.753 68.851,17.472 C68.83,17.738 68.831,18.196 68.857,18.844 L64.19,18.839 C64.29,18.57 64.378,18.207 64.458,17.749 C64.51,17.45 64.547,17.068 64.571,16.61 C63.584,17.963 62.229,18.766 60.539,18.974 "/>
</g>

<g fill="#000000" fill-opacity="1" stroke="#000000" stroke-opacity="1" stroke-width="1" stroke-linecap="square" stroke-linejoin="miter" stroke-miterlimit="2" transform="matrix(1,0,0,1,8,8)"
>
</g>

<g fill="#000000" fill-opacity="1" stroke="#000000" stroke-opacity="1" stroke-width="1" stroke-linecap="square" stroke-linejoin="miter" stroke-miterlimit="2" transform="matrix(1,0,0,1,8,8)"
>
</g>

<g fill="#000000" fill-opacity="1" stroke="#000000" stroke-opacity="1" stroke-width="1" stroke-linecap="square" stroke-linejoin="miter" stroke-miterlimit="2" transform="matrix(1,0,0,1,8,8)"
>
</g>

<g fill="#000000" fill-opacity="1" stroke="#000000" stroke-opacity="1" stroke-width="1" stroke-linecap="square" stroke-linejoin="miter" stroke-miterlimit="2" transform="matrix(1,0,0,1,0,0)"
>
</g>

<g fill="#000000" fill-opacity="1" stroke="#000000" stroke-opacity="1" stroke-width="1" stroke-linecap="square" stroke-linejoin="miter" stroke-miterlimit="2" transform="matrix(1,0,0,1,0,0)"
>
</g>

<g fill="#000000" fill-opacity="1" stroke="#000000" stroke-opacity="1" stroke-width="1" stroke-linecap="square" stroke-linejoin="miter" stroke-miterlimit="2" transform="matrix(1,0,0,1,0,0)"
>
</g>

<g fill="#000000" fill-opacity="1" stroke="#000000" stroke-opacity="1" stroke-width="1" stroke-linecap="square" stroke-linejoin="miter" stroke-miterlimit="2" transform="matrix(1,0,0,1,0,0)"
>
</g>

<g fill="#000000" fill-opacity="1" stroke="#000000" stroke-opacity="1" stroke-width="1" stroke-linecap="square" stroke-linejoin="miter" stroke-miterlimit="2" transform="matrix(1,0,0,1,8,8)"
>
</g>

<g fill="#000000" fill-opacity="1" stroke="#000000" stroke-opacity="1" stroke-width="1" stroke-linecap="square" stroke-linejoin="miter" stroke-miterlimit="2" transform="matrix(1,0,0,1,8,8)"
>
</g>

<g fill="#000000" fill-opacity="1" stroke="#000000" stroke-opacity="1" stroke-width="1" stroke-linecap="square" stroke-linejoin="miter" stroke-miterlimit="2" transform="matrix(1,0,0,1,8,8)"
>
</g>

<g fill="#000000" fill-opacity="1" stroke="#000000" stroke-opacity="1" stroke-width="1" stroke-linecap="square" stroke-linejoin="miter" stroke-miterlimit="2" transform="matrix(1,0,0,1,0,0)"
>
</g>

<g fill="#000000" fill-opacity="1" stroke="#000000" stroke-opacity="1" stroke-width="1" stroke-linecap="square" stroke-linejoin="miter" stroke-miterlimit="2" transform="matrix(1,0,0,1,0,0)"
>
</g>

<g fill="#000000" fill-opacity="1" stroke="#000000" stroke-opacity="1" stroke-width="1" stroke-linecap="square" stroke-linejoin="miter" stroke-miterlimit="2" transform="matrix(1,0,0,1,0,0)"
>
</g>

<g fill="#000000" fill-opacity="1" stroke="#000000" stroke-opacity="1" stroke-width="1" stroke-linecap="square" stroke-linejoin="miter" stroke-miterlimit="2" transform="matrix(1,0,0,1,0,0)"
>
</g>

<g fill="#000000" fill-opacity="1" stroke="#000000" stroke-opacity="1" stroke-width="1" stroke-linecap="square" stroke-linejoin="miter" stroke-miterlimit="2" transform="matrix(1,0,0,1,0,0)"
>
</g>

<g fill="#000000" fill-opacity="1" stroke="#000000" stroke-opacity="1" stroke-width="1" stroke-linecap="square" stroke-linejoin="miter" stroke-miterlimit="2" transform="matrix(1,0,0,1,0,0)"
>
</g>
</g>
</svg>
